name rise44.9368peak50.754fall52.0217.mot
datacolumns 19
datarows 30
range 18.50327100000000 18.55159600000000
endheader
time	ground_force1_vx	ground_force1_vy	ground_force1_vz	ground_force1_px	ground_force1_py	ground_force1_pz	ground_force2_vx	ground_force2_vy	ground_force2_vz	ground_force2_px	ground_force2_py	ground_force2_pz	ground_torque1_x	ground_torque1_y	ground_torque1_z	ground_torque2_x	ground_torque2_y	ground_torque2_z	
18.50327100000000	-3.21705200000000	721.60045800000000	48.85858300000000	0.19669600000000	0.00000000000000	0.16768300000000	0.00000000000000	0.00000000000000	0.00000000000000	0.00000000000000	0.00000000000000	0.00000000000000	0.00000000000000	20.09528300000000	0.00000000000000	0.00000000000000	0.00000000000000	0.00000000000000	
18.50493800000000	-3.62908000000000	721.92229899999995	48.75244200000000	0.19579500000000	0.00000000000000	0.16762200000000	0.00000000000000	0.00000000000000	0.00000000000000	0.00000000000000	0.00000000000000	0.00000000000000	0.00000000000000	20.11349200000000	0.00000000000000	0.00000000000000	0.00000000000000	0.00000000000000	
18.50659600000000	-4.04431800000000	722.25810100000001	48.65016300000000	0.19488400000000	0.00000000000000	0.16756100000000	0.00000000000000	0.00000000000000	0.00000000000000	0.00000000000000	0.00000000000000	0.00000000000000	0.00000000000000	20.13448100000000	0.00000000000000	0.00000000000000	0.00000000000000	0.00000000000000	
18.50826800000000	-4.46287100000000	722.60749699999997	48.55175300000000	0.19396400000000	0.00000000000000	0.16749900000000	0.00000000000000	0.00000000000000	0.00000000000000	0.00000000000000	0.00000000000000	0.00000000000000	0.00000000000000	20.15826300000000	0.00000000000000	0.00000000000000	0.00000000000000	0.00000000000000	
18.50993400000000	-4.88481900000000	722.97013500000003	48.45721600000000	0.19303300000000	0.00000000000000	0.16743500000000	0.00000000000000	0.00000000000000	0.00000000000000	0.00000000000000	0.00000000000000	0.00000000000000	0.00000000000000	20.18485100000000	0.00000000000000	0.00000000000000	0.00000000000000	0.00000000000000	
18.51160000000000	-5.31022500000000	723.34568100000001	48.36655000000000	0.19209100000000	0.00000000000000	0.16737000000000	0.00000000000000	0.00000000000000	0.00000000000000	0.00000000000000	0.00000000000000	0.00000000000000	0.00000000000000	20.21425700000000	0.00000000000000	0.00000000000000	0.00000000000000	0.00000000000000	
18.51326900000000	-5.73912900000000	723.73382100000003	48.27974600000000	0.19113900000000	0.00000000000000	0.16730300000000	0.00000000000000	0.00000000000000	0.00000000000000	0.00000000000000	0.00000000000000	0.00000000000000	0.00000000000000	20.24649300000000	0.00000000000000	0.00000000000000	0.00000000000000	0.00000000000000	
18.51493500000000	-6.17154900000000	724.13426400000003	48.19679300000000	0.19017600000000	0.00000000000000	0.16723500000000	0.00000000000000	0.00000000000000	0.00000000000000	0.00000000000000	0.00000000000000	0.00000000000000	0.00000000000000	20.28156600000000	0.00000000000000	0.00000000000000	0.00000000000000	0.00000000000000	
18.51660400000000	-6.60748500000000	724.54674199999999	48.11767100000000	0.18920300000000	0.00000000000000	0.16716500000000	0.00000000000000	0.00000000000000	0.00000000000000	0.00000000000000	0.00000000000000	0.00000000000000	0.00000000000000	20.31948400000000	0.00000000000000	0.00000000000000	0.00000000000000	0.00000000000000	
18.51826300000000	-7.04691400000000	724.97101499999997	48.04235600000000	0.18822000000000	0.00000000000000	0.16709400000000	0.00000000000000	0.00000000000000	0.00000000000000	0.00000000000000	0.00000000000000	0.00000000000000	0.00000000000000	20.36025100000000	0.00000000000000	0.00000000000000	0.00000000000000	0.00000000000000	
18.51993500000000	-7.48979500000000	725.40686800000003	47.97081900000000	0.18722700000000	0.00000000000000	0.16702100000000	0.00000000000000	0.00000000000000	0.00000000000000	0.00000000000000	0.00000000000000	0.00000000000000	0.00000000000000	20.40387100000000	0.00000000000000	0.00000000000000	0.00000000000000	0.00000000000000	
18.52160100000000	-7.93606700000000	725.85411599999998	47.90302400000000	0.18622600000000	0.00000000000000	0.16694600000000	0.00000000000000	0.00000000000000	0.00000000000000	0.00000000000000	0.00000000000000	0.00000000000000	0.00000000000000	20.45034400000000	0.00000000000000	0.00000000000000	0.00000000000000	0.00000000000000	
18.52326500000000	-8.38565300000000	726.31260399999996	47.83893000000000	0.18521600000000	0.00000000000000	0.16686900000000	0.00000000000000	0.00000000000000	0.00000000000000	0.00000000000000	0.00000000000000	0.00000000000000	0.00000000000000	20.49966600000000	0.00000000000000	0.00000000000000	0.00000000000000	0.00000000000000	
18.52493600000000	-8.83845600000000	726.78220799999997	47.77849200000000	0.18419800000000	0.00000000000000	0.16679000000000	0.00000000000000	0.00000000000000	0.00000000000000	0.00000000000000	0.00000000000000	0.00000000000000	0.00000000000000	20.55183200000000	0.00000000000000	0.00000000000000	0.00000000000000	0.00000000000000	
18.52659700000000	-9.29436600000000	727.26283400000000	47.72165800000000	0.18317400000000	0.00000000000000	0.16670900000000	0.00000000000000	0.00000000000000	0.00000000000000	0.00000000000000	0.00000000000000	0.00000000000000	0.00000000000000	20.60683500000000	0.00000000000000	0.00000000000000	0.00000000000000	0.00000000000000	
18.52827100000000	-9.75325400000000	727.75441999999998	47.66837100000000	0.18214400000000	0.00000000000000	0.16662700000000	0.00000000000000	0.00000000000000	0.00000000000000	0.00000000000000	0.00000000000000	0.00000000000000	0.00000000000000	20.66466100000000	0.00000000000000	0.00000000000000	0.00000000000000	0.00000000000000	
18.52993800000000	-10.21498100000000	728.25693699999999	47.61857400000000	0.18110900000000	0.00000000000000	0.16654200000000	0.00000000000000	0.00000000000000	0.00000000000000	0.00000000000000	0.00000000000000	0.00000000000000	0.00000000000000	20.72529700000000	0.00000000000000	0.00000000000000	0.00000000000000	0.00000000000000	
18.53159700000000	-10.67939400000000	728.77038800000003	47.57220100000000	0.18007000000000	0.00000000000000	0.16645500000000	0.00000000000000	0.00000000000000	0.00000000000000	0.00000000000000	0.00000000000000	0.00000000000000	0.00000000000000	20.78872400000000	0.00000000000000	0.00000000000000	0.00000000000000	0.00000000000000	
18.53326500000000	-11.14632800000000	729.29480300000000	47.52918700000000	0.17902900000000	0.00000000000000	0.16636600000000	0.00000000000000	0.00000000000000	0.00000000000000	0.00000000000000	0.00000000000000	0.00000000000000	0.00000000000000	20.85492100000000	0.00000000000000	0.00000000000000	0.00000000000000	0.00000000000000	
18.53493700000000	-11.61561200000000	729.83024899999998	47.48946200000000	0.17798700000000	0.00000000000000	0.16627500000000	0.00000000000000	0.00000000000000	0.00000000000000	0.00000000000000	0.00000000000000	0.00000000000000	0.00000000000000	20.92386200000000	0.00000000000000	0.00000000000000	0.00000000000000	0.00000000000000	
18.53660200000000	-12.08706200000000	730.37681599999996	47.45295400000000	0.17694500000000	0.00000000000000	0.16618200000000	0.00000000000000	0.00000000000000	0.00000000000000	0.00000000000000	0.00000000000000	0.00000000000000	0.00000000000000	20.99551900000000	0.00000000000000	0.00000000000000	0.00000000000000	0.00000000000000	
18.53826700000000	-12.56049000000000	730.93462699999998	47.41959200000000	0.17590400000000	0.00000000000000	0.16608700000000	0.00000000000000	0.00000000000000	0.00000000000000	0.00000000000000	0.00000000000000	0.00000000000000	0.00000000000000	21.06985900000000	0.00000000000000	0.00000000000000	0.00000000000000	0.00000000000000	
18.53993100000000	-13.03570400000000	731.50382999999999	47.38930300000000	0.17486600000000	0.00000000000000	0.16599000000000	0.00000000000000	0.00000000000000	0.00000000000000	0.00000000000000	0.00000000000000	0.00000000000000	0.00000000000000	21.14684600000000	0.00000000000000	0.00000000000000	0.00000000000000	0.00000000000000	
18.54159800000000	-13.51250400000000	732.08459900000003	47.36201400000000	0.17383100000000	0.00000000000000	0.16589000000000	0.00000000000000	0.00000000000000	0.00000000000000	0.00000000000000	0.00000000000000	0.00000000000000	0.00000000000000	21.22644200000000	0.00000000000000	0.00000000000000	0.00000000000000	0.00000000000000	
18.54327100000000	-13.99069300000000	732.67713100000003	47.33765400000000	0.17280200000000	0.00000000000000	0.16578900000000	0.00000000000000	0.00000000000000	0.00000000000000	0.00000000000000	0.00000000000000	0.00000000000000	0.00000000000000	21.30860200000000	0.00000000000000	0.00000000000000	0.00000000000000	0.00000000000000	
18.54492900000000	-14.47006800000000	733.28164200000003	47.31615300000000	0.17178000000000	0.00000000000000	0.16568600000000	0.00000000000000	0.00000000000000	0.00000000000000	0.00000000000000	0.00000000000000	0.00000000000000	0.00000000000000	21.39328100000000	0.00000000000000	0.00000000000000	0.00000000000000	0.00000000000000	
18.54659600000000	-14.95042900000000	733.89837199999999	47.29744400000000	0.17076500000000	0.00000000000000	0.16558100000000	0.00000000000000	0.00000000000000	0.00000000000000	0.00000000000000	0.00000000000000	0.00000000000000	0.00000000000000	21.48042700000000	0.00000000000000	0.00000000000000	0.00000000000000	0.00000000000000	
18.54826800000000	-15.43157900000000	734.52757299999996	47.28146400000000	0.16976000000000	0.00000000000000	0.16547400000000	0.00000000000000	0.00000000000000	0.00000000000000	0.00000000000000	0.00000000000000	0.00000000000000	0.00000000000000	21.56998800000000	0.00000000000000	0.00000000000000	0.00000000000000	0.00000000000000	
18.54993700000000	-15.91332000000000	735.16951200000005	47.26815300000000	0.16876500000000	0.00000000000000	0.16536500000000	0.00000000000000	0.00000000000000	0.00000000000000	0.00000000000000	0.00000000000000	0.00000000000000	0.00000000000000	21.66190700000000	0.00000000000000	0.00000000000000	0.00000000000000	0.00000000000000	
18.55159600000000	-16.39546200000000	735.82446800000002	47.25745700000000	0.16778100000000	0.00000000000000	0.16525500000000	0.00000000000000	0.00000000000000	0.00000000000000	0.00000000000000	0.00000000000000	0.00000000000000	0.00000000000000	21.75612200000000	0.00000000000000	0.00000000000000	0.00000000000000	0.00000000000000	
